<svg id="visual" viewBox="0 0 900 600" width="900" height="600" xmlns="http://www.w3.org/2000/svg" xmlns:xlink="http://www.w3.org/1999/xlink" version="1.1"><rect x="0" y="0" width="900" height="600" fill="#001220"></rect><defs><linearGradient id="grad1_0" x1="33.3%" y1="0%" x2="100%" y2="100%"><stop offset="20%" stop-color="#001220" stop-opacity="1"></stop><stop offset="80%" stop-color="#001220" stop-opacity="1"></stop></linearGradient></defs><defs><linearGradient id="grad2_0" x1="0%" y1="0%" x2="66.7%" y2="100%"><stop offset="20%" stop-color="#001220" stop-opacity="1"></stop><stop offset="80%" stop-color="#001220" stop-opacity="1"></stop></linearGradient></defs><g transform="translate(900, 0)"><path d="M0 351.5C-20.4 310.7 -40.8 269.8 -70.7 263.7C-100.5 257.6 -139.8 286.2 -162.5 281.5C-185.2 276.7 -191.4 238.7 -219.2 219.2C-247 199.7 -296.4 198.7 -304.4 175.8C-312.5 152.8 -279.2 108 -280.1 75.1C-281.1 42.1 -316.3 21.1 -351.5 0L0 0Z" fill="#FBAE3C"></path></g><g transform="translate(0, 600)"><path d="M0 -351.5C19.6 -308 39.1 -264.4 69.1 -257.9C99.1 -251.4 139.6 -282.1 156 -270.2C172.4 -258.3 164.9 -203.8 179.6 -179.6C194.3 -155.4 231.3 -161.6 264.1 -152.5C297 -143.4 325.7 -119 339.6 -91C353.4 -63 352.5 -31.5 351.5 0L0 0Z" fill="#FBAE3C"></path></g></svg>