<svg id="visual" viewBox="0 0 900 600" width="900" height="600" xmlns="http://www.w3.org/2000/svg" xmlns:xlink="http://www.w3.org/1999/xlink" version="1.1"><rect x="0" y="0" width="900" height="600" fill="#001220"></rect><defs><linearGradient id="grad1_0" x1="33.3%" y1="0%" x2="100%" y2="100%"><stop offset="20%" stop-color="#001220" stop-opacity="1"></stop><stop offset="80%" stop-color="#001220" stop-opacity="1"></stop></linearGradient></defs><defs><linearGradient id="grad2_0" x1="0%" y1="0%" x2="66.7%" y2="100%"><stop offset="20%" stop-color="#001220" stop-opacity="1"></stop><stop offset="80%" stop-color="#001220" stop-opacity="1"></stop></linearGradient></defs><g transform="translate(900, 0)"><path d="M0 432.7C-14.3 349.7 -28.5 266.7 -72.7 271.4C-117 276.2 -191.2 368.7 -209.5 362.9C-227.8 357 -190.3 252.7 -220.6 220.6C-250.9 188.5 -348.9 228.7 -374.7 216.3C-400.5 204 -354 139 -351.6 94.2C-349.2 49.4 -390.9 24.7 -432.7 0L0 0Z" fill="#FBAE3C"></path></g><g transform="translate(0, 600)"><path d="M0 -432.7C44.2 -433.1 88.3 -433.5 104.8 -391.2C121.3 -348.9 110.1 -264 146.5 -253.7C182.9 -243.5 266.7 -307.9 305.9 -305.9C345.1 -303.9 339.6 -235.5 322.2 -186C304.7 -136.5 275.3 -106 291.7 -78.2C308.1 -50.3 370.4 -25.2 432.7 0L0 0Z" fill="#FBAE3C"></path></g></svg>